<?xml version="1.0" encoding="UTF-8"?>
<svg width="1200pt" height="1200pt" version="1.1" viewBox="0 0 1200 1200" xmlns="http://www.w3.org/2000/svg">
 <path d="m850 150h-500c-40.539 0.91797-79.066 17.84-107.17 47.07-28.105 29.227-43.504 68.387-42.832 108.93v641c-1.0117 22.059 5.3086 43.828 17.973 61.918 12.664 18.09 30.957 31.48 52.027 38.082 18.719 6.3008 38.918 6.707 57.875 1.1641 18.953-5.543 35.75-16.77 48.125-32.164l224-200 224 200c18.934 22.184 46.844 34.668 76 34 10.375 0.046875 20.684-1.6445 30.5-5 21.07-6.6016 39.363-19.992 52.027-38.082 12.664-18.09 18.984-39.859 17.973-61.918v-639c0.66797-40.629-14.797-79.863-43.008-109.11-28.211-29.242-66.867-46.105-107.49-46.895z" style="fill: blue;"/>
</svg>

